<svg xmlns="http://www.w3.org/2000/svg" viewBox="0 0 23 23"><path d="M1 1h7v7h-7zM9 1h1v1h-1zM11 1h1v1h-1zM15 1h7v7h-7zM2 2v5h5v-5zM10 2h1v1h-1zM12 2h1v1h1v1h-2v1h2v3h-1v-2h-1v2h-1v-3h-1v3h1v2h-2v1h3v1h-3v1h-1v-1h-1v-1h1v-1h-1v-1h2v-5h2v-1h1zM16 2v5h5v-5zM3 3h3v3h-3zM17 3h3v3h-3zM1 9h1v1h-1zM5 9h1v3h-1v-1h-1v-1h1zM13 9h6v1h1v1h1v1h1v2h-1v-1h-1v-1h-1v-1h-1v2h-1v-2h-1v-1h-1v2h-1v1h-1v1h-1v1h-1v1h1v1h1v1h-2v-1h-1v-1h-1v-2h1v-1h2v-1h1zM21 9h1v1h-1zM2 10h1v1h-1zM3 11h1v1h-1zM6 12h1v1h1v1h-4v-1h2zM2 13h1v1h-1zM14 13h1v1h-1zM18 13h1v1h1v1h1v1h-2v-1h-1v1h-1v-2h1zM13 14h1v1h-1zM1 15h7v7h-7zM12 15h1v1h-1zM15 15h1v1h-1zM2 16v5h5v-5zM14 16h1v2h1v2h-1v2h-1v-1h-1v-1h1zM16 16h1v1h-1zM18 16h1v1h-1zM3 17h3v3h-3zM9 17h1v1h-1zM10 18h1v1h1v2h-1v-1h-1zM17 18h2v1h1v1h-2v1h-1zM20 18h2v1h-2zM9 21h1v1h-1zM12 21h1v1h-1zM16 21h1v1h-1zM21 21h1v1h-1z"/></svg>